<?xml version="1.0" encoding="utf-8"?>
<!-- Generator: Adobe Illustrator 24.3.0, SVG Export Plug-In . SVG Version: 6.00 Build 0)  -->
<svg version="1.1" id="Calque_1" xmlns="http://www.w3.org/2000/svg" xmlns:xlink="http://www.w3.org/1999/xlink" x="0px" y="0px"
	 viewBox="0 0 186.4 159.3" style="enable-background:new 0 0 186.4 159.3;" xml:space="preserve">
<style type="text/css">
	.st0{fill:#FFFFFF;}
</style>
<g>
	<path class="st0" d="M95,1.2c-1.5-1.1-3.5-1.5-5.4-0.9L59.2,10c-2.5,0.8-4.2,3.1-4.2,5.7V140c0,2.4,1.4,4.5,3.6,5.5l30.6,13.4
		c0.8,0.3,1.6,0.5,2.4,0.5c1.2,0,2.3-0.3,3.3-1c1.7-1.1,2.7-3,2.7-5L97.5,6C97.5,4.1,96.6,2.3,95,1.2z M83,143l-13.4-5.9
		c-1.4-0.6-2.6-2.4-2.6-4V23c0-1.6,1.2-3.2,2.7-3.7l13.1-4.2c1.5-0.5,2.7,0.4,2.7,2l0.1,124.3C85.6,142.9,84.4,143.7,83,143z"/>
	<path class="st0" d="M21.5,74L35,69.7c2.5-0.8,4.2-3.1,4.2-5.7V24.4c0-1.9-0.9-3.7-2.4-4.8c-1.5-1.1-3.5-1.5-5.3-0.9L4.2,27.2
		C1.7,28,0,30.3,0,32.9v71.5v3.4v8.6c0,1.6,1.2,3.3,2.6,4l6.8,3c1.4,0.6,2.6-0.1,2.6-1.7V113v-7.7V81.4l15.6,18.4v12.6v7.4v8.6
		c0,1.6,1.2,3.3,2.6,4l6.8,3c1.4,0.6,2.6-0.1,2.6-1.7v-8.6v-14.9V97.6c0-1.4-0.5-2.8-1.4-3.9L21.5,74z M12,61.6V40.2
		c0-1.6,1.2-3.2,2.7-3.7l9.8-3.1c1.5-0.5,2.7,0.4,2.7,2v21.3c0,1.6-1.2,3.2-2.7,3.7l-9.8,3.1C13.2,64.1,12,63.2,12,61.6z"/>
	<path class="st0" d="M182.8,27L122.5,1c-1.9-0.8-4-0.6-5.7,0.5c-1.7,1.1-2.7,3-2.7,5v7V78v18.8v50.9v9.8c0,1.6,1.1,2.2,2.5,1.5
		l7-3.7c1.4-0.7,2.5-2.6,2.5-4.2v-9.8V96.8V71.6V18.5c0-1.6,1.2-2.3,2.6-1.7l6.5,2.8l6.5,2.8c1.4,0.6,2.6,2.4,2.6,4V62v17.7v52.1
		v8.6c0,1.6,1.1,2.2,2.5,1.5l7-3.7c1.4-0.7,2.5-2.6,2.5-4.2v-8.6V79.7v-24V31.5c0-1.6,1.2-2.3,2.6-1.7l6.5,2.8l6.5,2.8
		c1.4,0.6,2.6,2.4,2.6,4v6.8V62v53.9v6.8c0,1.6,1.1,2.2,2.5,1.5l7-3.7c1.4-0.7,2.5-2.6,2.5-4.2v-6.8V62V32.5
		C186.4,30.1,185,28,182.8,27z"/>
</g>
</svg>
