<?xml version="1.0" encoding="UTF-8" standalone="no"?>
<!DOCTYPE svg PUBLIC "-//W3C//DTD SVG 1.1//EN" "http://www.w3.org/Graphics/SVG/1.1/DTD/svg11.dtd">
<svg width="100%" height="100%" viewBox="0 0 187 160" version="1.1" xmlns="http://www.w3.org/2000/svg" xmlns:xlink="http://www.w3.org/1999/xlink" xml:space="preserve" xmlns:serif="http://www.serif.com/" style="fill-rule:evenodd;clip-rule:evenodd;stroke-linejoin:round;stroke-miterlimit:2;">
    <g>
        <path d="M95,1.2C93.5,0.1 91.5,-0.3 89.6,0.3L59.2,10C56.7,10.8 55,13.1 55,15.7L55,140C55,142.4 56.4,144.5 58.6,145.5L89.2,158.9C90,159.2 90.8,159.4 91.6,159.4C92.8,159.4 93.9,159.1 94.9,158.4C96.6,157.3 97.6,155.4 97.6,153.4L97.5,6C97.5,4.1 96.6,2.3 95,1.2ZM83,143L69.6,137.1C68.2,136.5 67,134.7 67,133.1L67,23C67,21.4 68.2,19.8 69.7,19.3L82.8,15.1C84.3,14.6 85.5,15.5 85.5,17.1L85.6,141.4C85.6,142.9 84.4,143.7 83,143Z" style="fill-rule:nonzero;"/>
        <path d="M21.5,74L35,69.7C37.5,68.9 39.2,66.6 39.2,64L39.2,24.4C39.2,22.5 38.3,20.7 36.8,19.6C35.3,18.5 33.3,18.1 31.5,18.7L4.2,27.2C1.7,28 0,30.3 0,32.9L0,116.4C0,118 1.2,119.7 2.6,120.4L9.4,123.4C10.8,124 12,123.3 12,121.7L12,81.4L27.6,99.8L27.6,128.4C27.6,130 28.8,131.7 30.2,132.4L37,135.4C38.4,136 39.6,135.3 39.6,133.7L39.6,97.6C39.6,96.2 39.1,94.8 38.2,93.7L21.5,74ZM12,61.6L12,40.2C12,38.6 13.2,37 14.7,36.5L24.5,33.4C26,32.9 27.2,33.8 27.2,35.4L27.2,56.7C27.2,58.3 26,59.9 24.5,60.4L14.7,63.5C13.2,64.1 12,63.2 12,61.6Z" style="fill-rule:nonzero;"/>
        <path d="M182.8,27L122.5,1C120.6,0.2 118.5,0.4 116.8,1.5C115.1,2.6 114.1,4.5 114.1,6.5L114.1,157.5C114.1,159.1 115.2,159.7 116.6,159L123.6,155.3C125,154.6 126.1,152.7 126.1,151.1L126.1,18.5C126.1,16.9 127.3,16.2 128.7,16.8L141.7,22.4C143.1,23 144.3,24.8 144.3,26.4L144.3,140.4C144.3,142 145.4,142.6 146.8,141.9L153.8,138.2C155.2,137.5 156.3,135.6 156.3,134L156.3,31.5C156.3,29.9 157.5,29.2 158.9,29.8L171.9,35.4C173.3,36 174.5,37.8 174.5,39.4L174.5,122.7C174.5,124.3 175.6,124.9 177,124.2L184,120.5C185.4,119.8 186.5,117.9 186.5,116.3L186.5,32.5C186.4,30.1 185,28 182.8,27Z" style="fill-rule:nonzero;"/>
    </g>
</svg>
